.
..............................Site Info...........................

 -   http://www.scenetime.com  *_*    

Scenetime .Always on time . friendly online private torrent community ..

     We care to share . Join us on  http://www.scenetime.com 

    Be the first to get new release at  http://www.scenetime.com

        Seed back for speed


...................................NFO:.................................................[IMG]http://i.imgur.com/qD9lu.gif[/IMG]

 
TITLE: 

The Five Year Engagement 2012 Unrated DVDRip AC3 XViD - INSPiRAL

IMDB: 
 
http://www.imdb.com/title/tt1195478/


SOURCES:

VIDEO -  HS VOBS THANKS
AUDIO -  HS VOBS THANKS
SUBS  - None Add

STATS:

Video
ID                                       : 0
Format                                   : MPEG-4 Visual
Format profile                           : Advanced Simple@L5
Format settings, BVOP                    : 2
Format settings, QPel                    : No
Format settings, GMC                     : No warppoints
Format settings, Matrix                  : Default (MPEG)
Muxing mode                              : Packed bitstream
Codec ID                                 : XVID
Codec ID/Hint                            : XviD
Duration                                 : 2h 11mn
Bit rate                                 : 1 833 Kbps
Width                                    : 720 pixels
Height                                   : 384 pixels
Display aspect ratio                     : 1.875
Frame rate                               : 23.976 fps
Color space                              : YUV
Chroma subsampling                       : 4:2:0
Bit depth                                : 8 bits
Scan type                                : Progressive
Compression mode                         : Lossy
Bits/(Pixel*Frame)                       : 0.277
Stream size                              : 1.68 GiB (82%)
Writing library                          : XviD 64

Audio
ID                                       : 1
Format                                   : AC-3
Format/Info                              : Audio Coding 3
Mode extension                           : CM (complete main)
Codec ID                                 : 2000
Duration                                 : 2h 11mn
Bit rate mode                            : Constant
Bit rate                                 : 384 Kbps
Channel(s)                               : 6 channels
Channel positions                        : Front: L C R, Side: L R, LFE
Sampling rate                            : 48.0 KHz
Bit depth                                : 16 bits
Compression mode                         : Lossy
Stream size                              : 361 MiB (17%)
Alignment                                : Aligned on interleaves
Interleave, duration                     : 42 ms (1.00 video frame)
Interleave, preload duration             : 512 ms



NOTES:

First off many thanks too HS for bring us all these vobs :) 
Right video was decent but we thought it needed tweaking ...slight tweak on the contrast,brightness and also 
on the rgb colours,but i mean slightly.
Audio was a straight forward ...demux the 6 channel and then remux back too our encode.

Now the file size i made bigger than most releases,for the simple fact the video 2hrs 11 mins long and too keep the
untouched audio and also keep a nice bitrate on the video ...we had no choice ;-)


SCREENS:

[img]http://i.imgrz.com/4Pe0i.png[/img]
[img]http://i.imgrz.com/FgIX3.png[/img]
[img]http://i.imgrz.com/OWHY.png[/img]
[img]http://i.imgrz.com/AlJRs.png[/img]


GREETZ: 

Past,Present and Future

[IMG]http://i.imgur.com/qD9lu.gif[/IMG]